<svg width="2025" height="1231" xmlns="http://www.w3.org/2000/svg" xmlns:xlink="http://www.w3.org/1999/xlink" overflow="hidden"><defs><clipPath id="clip0"><rect x="2374" y="552" width="2025" height="1231"/></clipPath><clipPath id="clip1"><rect x="2375" y="553" width="2021" height="1227"/></clipPath><clipPath id="clip2"><rect x="2375" y="553" width="2021" height="1227"/></clipPath><clipPath id="clip3"><rect x="2375" y="553" width="2021" height="1227"/></clipPath><clipPath id="clip4"><rect x="2375" y="553" width="2021" height="1227"/></clipPath><clipPath id="clip5"><rect x="2375" y="553" width="2021" height="1227"/></clipPath><clipPath id="clip6"><rect x="2375" y="553" width="2021" height="1227"/></clipPath><clipPath id="clip7"><rect x="2375" y="553" width="2021" height="1227"/></clipPath><clipPath id="clip8"><rect x="2375" y="553" width="2021" height="1227"/></clipPath><clipPath id="clip9"><rect x="2375" y="553" width="2021" height="1227"/></clipPath><clipPath id="clip10"><rect x="2375" y="553" width="2021" height="1227"/></clipPath><clipPath id="clip11"><rect x="2375" y="553" width="2021" height="1227"/></clipPath><clipPath id="clip12"><rect x="2375" y="553" width="2021" height="1227"/></clipPath><clipPath id="clip13"><rect x="2375" y="553" width="2021" height="1227"/></clipPath><clipPath id="clip14"><rect x="2375" y="553" width="2021" height="1227"/></clipPath><clipPath id="clip15"><rect x="2375" y="553" width="2021" height="1227"/></clipPath><clipPath id="clip16"><rect x="2375" y="553" width="2021" height="1227"/></clipPath><clipPath id="clip17"><rect x="2375" y="553" width="2021" height="1227"/></clipPath><clipPath id="clip18"><rect x="2375" y="553" width="2021" height="1227"/></clipPath><clipPath id="clip19"><rect x="2375" y="553" width="2021" height="1227"/></clipPath><clipPath id="clip20"><rect x="2375" y="553" width="2021" height="1227"/></clipPath><clipPath id="clip21"><rect x="2375" y="553" width="2021" height="1227"/></clipPath><clipPath id="clip22"><rect x="2375" y="553" width="2021" height="1227"/></clipPath><clipPath id="clip23"><rect x="2375" y="553" width="2021" height="1227"/></clipPath><clipPath id="clip24"><rect x="2375" y="553" width="2021" height="1227"/></clipPath><clipPath id="clip25"><rect x="2375" y="553" width="2021" height="1227"/></clipPath><clipPath id="clip26"><rect x="2375" y="553" width="2021" height="1227"/></clipPath><clipPath id="clip27"><rect x="2375" y="553" width="2021" height="1227"/></clipPath><clipPath id="clip28"><rect x="2375" y="553" width="2021" height="1227"/></clipPath></defs><g clip-path="url(#clip0)" transform="translate(-2374 -552)"><rect x="2375" y="553" width="2022" height="1228" fill="#FFFFFF"/><g clip-path="url(#clip1)"><path d="M2467.5 1460.55 4096.5 1460.55M2467.5 1246.54 4096.5 1246.54M2467.5 1031.53 4096.5 1031.53M2467.5 817.527 4096.5 817.527M2467.5 603.5 4096.5 603.5" stroke="#D9D9D9" stroke-width="3.4375" stroke-linejoin="round" stroke-miterlimit="10" fill="none"/></g><g clip-path="url(#clip2)"><path d="M3800.62 603.5 3800.62 1674.5M3504.61 603.5 3504.61 1674.5M3207.61 603.5 3207.61 1674.5M2911.6 603.5 2911.6 1674.5M2615.5 603.5 2615.5 1674.5" stroke="#D9D9D9" stroke-width="3.4375" stroke-linejoin="round" stroke-miterlimit="10" fill="none"/></g><g clip-path="url(#clip3)"><path d="M0 0 0.000360892 1071" stroke="#BFBFBF" stroke-width="3.4375" stroke-linejoin="round" stroke-miterlimit="10" fill="none" fill-rule="evenodd" transform="matrix(1 0 0 -1 4096.5 1674.5)"/></g><g clip-path="url(#clip4)"><path d="M0 0 1629 0.000360892" stroke="#BFBFBF" stroke-width="3.4375" stroke-linejoin="round" stroke-miterlimit="10" fill="none" fill-rule="evenodd" transform="matrix(-1 0 0 1 4096.5 1674.5)"/></g><g clip-path="url(#clip5)"><path d="M2625.81 813.937C2625.81 820.012 2620.89 824.937 2614.81 824.937 2608.74 824.937 2603.81 820.012 2603.81 813.937 2603.81 807.862 2608.74 802.938 2614.81 802.938 2620.89 802.938 2625.81 807.862 2625.81 813.937Z" stroke="#ED7D31" stroke-width="3.4375" stroke-linejoin="round" stroke-miterlimit="10" fill="#ED7D31"/><path d="M2924.81 813.937C2924.81 820.012 2919.89 824.937 2913.81 824.937 2907.74 824.937 2902.81 820.012 2902.81 813.937 2902.81 807.862 2907.74 802.938 2913.81 802.938 2919.89 802.938 2924.81 807.862 2924.81 813.937Z" stroke="#ED7D31" stroke-width="3.4375" stroke-linejoin="round" stroke-miterlimit="10" fill="#ED7D31"/><path d="M3223.81 817.937C3223.81 824.012 3218.89 828.937 3212.81 828.937 3206.74 828.937 3201.81 824.012 3201.81 817.937 3201.81 811.862 3206.74 806.937 3212.81 806.937 3218.89 806.937 3223.81 811.862 3223.81 817.937Z" stroke="#ED7D31" stroke-width="3.4375" stroke-linejoin="round" stroke-miterlimit="10" fill="#ED7D31"/><path d="M3522.81 817.937C3522.81 824.012 3517.89 828.937 3511.81 828.937 3505.74 828.937 3500.81 824.012 3500.81 817.937 3500.81 811.862 3505.74 806.937 3511.81 806.937 3517.89 806.937 3522.81 811.862 3522.81 817.937Z" stroke="#ED7D31" stroke-width="3.4375" stroke-linejoin="round" stroke-miterlimit="10" fill="#ED7D31"/><path d="M2804.81 817.937C2804.81 824.012 2799.89 828.937 2793.81 828.937 2787.74 828.937 2782.81 824.012 2782.81 817.937 2782.81 811.862 2787.74 806.937 2793.81 806.937 2799.89 806.937 2804.81 811.862 2804.81 817.937Z" stroke="#ED7D31" stroke-width="3.4375" stroke-linejoin="round" stroke-miterlimit="10" fill="#ED7D31"/><path d="M3099.81 817.937C3099.81 824.012 3094.89 828.937 3088.81 828.937 3082.74 828.937 3077.81 824.012 3077.81 817.937 3077.81 811.862 3082.74 806.937 3088.81 806.937 3094.89 806.937 3099.81 811.862 3099.81 817.937Z" stroke="#ED7D31" stroke-width="3.4375" stroke-linejoin="round" stroke-miterlimit="10" fill="#ED7D31"/><path d="M3399.81 822.937C3399.81 829.012 3394.89 833.937 3388.81 833.937 3382.74 833.937 3377.81 829.012 3377.81 822.937 3377.81 816.862 3382.74 811.938 3388.81 811.938 3394.89 811.938 3399.81 816.862 3399.81 822.937Z" stroke="#ED7D31" stroke-width="3.4375" stroke-linejoin="round" stroke-miterlimit="10" fill="#ED7D31"/><path d="M3697.81 822.937C3697.81 829.012 3692.89 833.937 3686.81 833.937 3680.74 833.937 3675.81 829.012 3675.81 822.937 3675.81 816.862 3680.74 811.938 3686.81 811.938 3692.89 811.938 3697.81 816.862 3697.81 822.937Z" stroke="#ED7D31" stroke-width="3.4375" stroke-linejoin="round" stroke-miterlimit="10" fill="#ED7D31"/><path d="M3789.81 822.937C3789.81 829.012 3784.89 833.937 3778.81 833.937 3772.74 833.937 3767.81 829.012 3767.81 822.937 3767.81 816.862 3772.74 811.938 3778.81 811.938 3784.89 811.938 3789.81 816.862 3789.81 822.937Z" stroke="#ED7D31" stroke-width="3.4375" stroke-linejoin="round" stroke-miterlimit="10" fill="#ED7D31"/></g><g clip-path="url(#clip6)"><path d="M2613.81 997.937C2613.81 1004.01 2608.89 1008.94 2602.81 1008.94 2596.74 1008.94 2591.81 1004.01 2591.81 997.937 2591.81 991.862 2596.74 986.937 2602.81 986.937 2608.89 986.937 2613.81 991.862 2613.81 997.937Z" stroke="#A5A5A5" stroke-width="3.4375" stroke-linejoin="round" stroke-miterlimit="10" fill="#A5A5A5"/><path d="M2844.81 993.937C2844.81 1000.01 2839.89 1004.94 2833.81 1004.94 2827.74 1004.94 2822.81 1000.01 2822.81 993.937 2822.81 987.862 2827.74 982.937 2833.81 982.937 2839.89 982.937 2844.81 987.862 2844.81 993.937Z" stroke="#A5A5A5" stroke-width="3.4375" stroke-linejoin="round" stroke-miterlimit="10" fill="#A5A5A5"/><path d="M3087.81 993.937C3087.81 1000.01 3082.89 1004.94 3076.81 1004.94 3070.74 1004.94 3065.81 1000.01 3065.81 993.937 3065.81 987.862 3070.74 982.937 3076.81 982.937 3082.89 982.937 3087.81 987.862 3087.81 993.937Z" stroke="#A5A5A5" stroke-width="3.4375" stroke-linejoin="round" stroke-miterlimit="10" fill="#A5A5A5"/><path d="M3322.81 997.937C3322.81 1004.01 3317.89 1008.94 3311.81 1008.94 3305.74 1008.94 3300.81 1004.01 3300.81 997.937 3300.81 991.862 3305.74 986.937 3311.81 986.937 3317.89 986.937 3322.81 991.862 3322.81 997.937Z" stroke="#A5A5A5" stroke-width="3.4375" stroke-linejoin="round" stroke-miterlimit="10" fill="#A5A5A5"/><path d="M3559.81 993.937C3559.81 1000.01 3554.89 1004.94 3548.81 1004.94 3542.74 1004.94 3537.81 1000.01 3537.81 993.937 3537.81 987.862 3542.74 982.937 3548.81 982.937 3554.89 982.937 3559.81 987.862 3559.81 993.937Z" stroke="#A5A5A5" stroke-width="3.4375" stroke-linejoin="round" stroke-miterlimit="10" fill="#A5A5A5"/><path d="M3796.81 989.937C3796.81 996.012 3791.89 1000.94 3785.81 1000.94 3779.74 1000.94 3774.81 996.012 3774.81 989.937 3774.81 983.862 3779.74 978.938 3785.81 978.938 3791.89 978.938 3796.81 983.862 3796.81 989.937Z" stroke="#A5A5A5" stroke-width="3.4375" stroke-linejoin="round" stroke-miterlimit="10" fill="#A5A5A5"/><path d="M2671.81 989.937C2671.81 996.012 2666.89 1000.94 2660.81 1000.94 2654.74 1000.94 2649.81 996.012 2649.81 989.937 2649.81 983.862 2654.74 978.938 2660.81 978.938 2666.89 978.938 2671.81 983.862 2671.81 989.937Z" stroke="#A5A5A5" stroke-width="3.4375" stroke-linejoin="round" stroke-miterlimit="10" fill="#A5A5A5"/><path d="M2909.81 989.937C2909.81 996.012 2904.89 1000.94 2898.81 1000.94 2892.74 1000.94 2887.81 996.012 2887.81 989.937 2887.81 983.862 2892.74 978.938 2898.81 978.938 2904.89 978.938 2909.81 983.862 2909.81 989.937Z" stroke="#A5A5A5" stroke-width="3.4375" stroke-linejoin="round" stroke-miterlimit="10" fill="#A5A5A5"/><path d="M3149.81 997.937C3149.81 1004.01 3144.89 1008.94 3138.81 1008.94 3132.74 1008.94 3127.81 1004.01 3127.81 997.937 3127.81 991.862 3132.74 986.937 3138.81 986.937 3144.89 986.937 3149.81 991.862 3149.81 997.937Z" stroke="#A5A5A5" stroke-width="3.4375" stroke-linejoin="round" stroke-miterlimit="10" fill="#A5A5A5"/><path d="M3383.81 984.937C3383.81 991.012 3378.89 995.937 3372.81 995.937 3366.74 995.937 3361.81 991.012 3361.81 984.937 3361.81 978.862 3366.74 973.937 3372.81 973.937 3378.89 973.937 3383.81 978.862 3383.81 984.937Z" stroke="#A5A5A5" stroke-width="3.4375" stroke-linejoin="round" stroke-miterlimit="10" fill="#A5A5A5"/><path d="M3623.81 989.937C3623.81 996.012 3618.89 1000.94 3612.81 1000.94 3606.74 1000.94 3601.81 996.012 3601.81 989.937 3601.81 983.862 3606.74 978.938 3612.81 978.938 3618.89 978.938 3623.81 983.862 3623.81 989.937Z" stroke="#A5A5A5" stroke-width="3.4375" stroke-linejoin="round" stroke-miterlimit="10" fill="#A5A5A5"/><path d="M3860.81 993.937C3860.81 1000.01 3855.89 1004.94 3849.81 1004.94 3843.74 1004.94 3838.81 1000.01 3838.81 993.937 3838.81 987.862 3843.74 982.937 3849.81 982.937 3855.89 982.937 3860.81 987.862 3860.81 993.937Z" stroke="#A5A5A5" stroke-width="3.4375" stroke-linejoin="round" stroke-miterlimit="10" fill="#A5A5A5"/></g><g clip-path="url(#clip7)"><path d="M2586.81 1246.94C2586.81 1253.01 2581.89 1257.94 2575.81 1257.94 2569.74 1257.94 2564.81 1253.01 2564.81 1246.94 2564.81 1240.86 2569.74 1235.94 2575.81 1235.94 2581.89 1235.94 2586.81 1240.86 2586.81 1246.94Z" stroke="#4472C4" stroke-width="3.4375" stroke-linejoin="round" stroke-miterlimit="10" fill="#4472C4"/><path d="M2734.81 1246.94C2734.81 1253.01 2729.89 1257.94 2723.81 1257.94 2717.74 1257.94 2712.81 1253.01 2712.81 1246.94 2712.81 1240.86 2717.74 1235.94 2723.81 1235.94 2729.89 1235.94 2734.81 1240.86 2734.81 1246.94Z" stroke="#4472C4" stroke-width="3.4375" stroke-linejoin="round" stroke-miterlimit="10" fill="#4472C4"/><path d="M2884.81 1241.94C2884.81 1248.01 2879.89 1252.94 2873.81 1252.94 2867.74 1252.94 2862.81 1248.01 2862.81 1241.94 2862.81 1235.86 2867.74 1230.94 2873.81 1230.94 2879.89 1230.94 2884.81 1235.86 2884.81 1241.94Z" stroke="#4472C4" stroke-width="3.4375" stroke-linejoin="round" stroke-miterlimit="10" fill="#4472C4"/><path d="M3035.81 1250.94C3035.81 1257.01 3030.89 1261.94 3024.81 1261.94 3018.74 1261.94 3013.81 1257.01 3013.81 1250.94 3013.81 1244.86 3018.74 1239.94 3024.81 1239.94 3030.89 1239.94 3035.81 1244.86 3035.81 1250.94Z" stroke="#4472C4" stroke-width="3.4375" stroke-linejoin="round" stroke-miterlimit="10" fill="#4472C4"/><path d="M3182.81 1250.94C3182.81 1257.01 3177.89 1261.94 3171.81 1261.94 3165.74 1261.94 3160.81 1257.01 3160.81 1250.94 3160.81 1244.86 3165.74 1239.94 3171.81 1239.94 3177.89 1239.94 3182.81 1244.86 3182.81 1250.94Z" stroke="#4472C4" stroke-width="3.4375" stroke-linejoin="round" stroke-miterlimit="10" fill="#4472C4"/><path d="M3330.81 1250.94C3330.81 1257.01 3325.89 1261.94 3319.81 1261.94 3313.74 1261.94 3308.81 1257.01 3308.81 1250.94 3308.81 1244.86 3313.74 1239.94 3319.81 1239.94 3325.89 1239.94 3330.81 1244.86 3330.81 1250.94Z" stroke="#4472C4" stroke-width="3.4375" stroke-linejoin="round" stroke-miterlimit="10" fill="#4472C4"/><path d="M3475.81 1246.94C3475.81 1253.01 3470.89 1257.94 3464.81 1257.94 3458.74 1257.94 3453.81 1253.01 3453.81 1246.94 3453.81 1240.86 3458.74 1235.94 3464.81 1235.94 3470.89 1235.94 3475.81 1240.86 3475.81 1246.94Z" stroke="#4472C4" stroke-width="3.4375" stroke-linejoin="round" stroke-miterlimit="10" fill="#4472C4"/><path d="M3624.81 1241.94C3624.81 1248.01 3619.89 1252.94 3613.81 1252.94 3607.74 1252.94 3602.81 1248.01 3602.81 1241.94 3602.81 1235.86 3607.74 1230.94 3613.81 1230.94 3619.89 1230.94 3624.81 1235.86 3624.81 1241.94Z" stroke="#4472C4" stroke-width="3.4375" stroke-linejoin="round" stroke-miterlimit="10" fill="#4472C4"/><path d="M3773.81 1246.94C3773.81 1253.01 3768.89 1257.94 3762.81 1257.94 3756.74 1257.94 3751.81 1253.01 3751.81 1246.94 3751.81 1240.86 3756.74 1235.94 3762.81 1235.94 3768.89 1235.94 3773.81 1240.86 3773.81 1246.94Z" stroke="#4472C4" stroke-width="3.4375" stroke-linejoin="round" stroke-miterlimit="10" fill="#4472C4"/><path d="M3924.81 1250.94C3924.81 1257.01 3919.89 1261.94 3913.81 1261.94 3907.74 1261.94 3902.81 1257.01 3902.81 1250.94 3902.81 1244.86 3907.74 1239.94 3913.81 1239.94 3919.89 1239.94 3924.81 1244.86 3924.81 1250.94Z" stroke="#4472C4" stroke-width="3.4375" stroke-linejoin="round" stroke-miterlimit="10" fill="#4472C4"/></g><g clip-path="url(#clip8)"><path d="M2622.81 1511.94C2622.81 1518.01 2617.89 1522.94 2611.81 1522.94 2605.74 1522.94 2600.81 1518.01 2600.81 1511.94 2600.81 1505.86 2605.74 1500.94 2611.81 1500.94 2617.89 1500.94 2622.81 1505.86 2622.81 1511.94Z" stroke="#FFC000" stroke-width="3.4375" stroke-linejoin="round" stroke-miterlimit="10" fill="#FFC000"/><path d="M2752.81 1507.94C2752.81 1514.01 2747.89 1518.94 2741.81 1518.94 2735.74 1518.94 2730.81 1514.01 2730.81 1507.94 2730.81 1501.86 2735.74 1496.94 2741.81 1496.94 2747.89 1496.94 2752.81 1501.86 2752.81 1507.94Z" stroke="#FFC000" stroke-width="3.4375" stroke-linejoin="round" stroke-miterlimit="10" fill="#FFC000"/><path d="M2894.81 1507.94C2894.81 1514.01 2889.89 1518.94 2883.81 1518.94 2877.74 1518.94 2872.81 1514.01 2872.81 1507.94 2872.81 1501.86 2877.74 1496.94 2883.81 1496.94 2889.89 1496.94 2894.81 1501.86 2894.81 1507.94Z" stroke="#FFC000" stroke-width="3.4375" stroke-linejoin="round" stroke-miterlimit="10" fill="#FFC000"/><path d="M3028.81 1511.94C3028.81 1518.01 3023.89 1522.94 3017.81 1522.94 3011.74 1522.94 3006.81 1518.01 3006.81 1511.94 3006.81 1505.86 3011.74 1500.94 3017.81 1500.94 3023.89 1500.94 3028.81 1505.86 3028.81 1511.94Z" stroke="#FFC000" stroke-width="3.4375" stroke-linejoin="round" stroke-miterlimit="10" fill="#FFC000"/><path d="M3222.81 1511.94C3222.81 1518.01 3217.89 1522.94 3211.81 1522.94 3205.74 1522.94 3200.81 1518.01 3200.81 1511.94 3200.81 1505.86 3205.74 1500.94 3211.81 1500.94 3217.89 1500.94 3222.81 1505.86 3222.81 1511.94Z" stroke="#FFC000" stroke-width="3.4375" stroke-linejoin="round" stroke-miterlimit="10" fill="#FFC000"/><path d="M3353.81 1507.94C3353.81 1514.01 3348.89 1518.94 3342.81 1518.94 3336.74 1518.94 3331.81 1514.01 3331.81 1507.94 3331.81 1501.86 3336.74 1496.94 3342.81 1496.94 3348.89 1496.94 3353.81 1501.86 3353.81 1507.94Z" stroke="#FFC000" stroke-width="3.4375" stroke-linejoin="round" stroke-miterlimit="10" fill="#FFC000"/><path d="M3494.81 1511.94C3494.81 1518.01 3489.89 1522.94 3483.81 1522.94 3477.74 1522.94 3472.81 1518.01 3472.81 1511.94 3472.81 1505.86 3477.74 1500.94 3483.81 1500.94 3489.89 1500.94 3494.81 1505.86 3494.81 1511.94Z" stroke="#FFC000" stroke-width="3.4375" stroke-linejoin="round" stroke-miterlimit="10" fill="#FFC000"/><path d="M3642.81 1511.94C3642.81 1518.01 3637.89 1522.94 3631.81 1522.94 3625.74 1522.94 3620.81 1518.01 3620.81 1511.94 3620.81 1505.86 3625.74 1500.94 3631.81 1500.94 3637.89 1500.94 3642.81 1505.86 3642.81 1511.94Z" stroke="#FFC000" stroke-width="3.4375" stroke-linejoin="round" stroke-miterlimit="10" fill="#FFC000"/><path d="M3792.81 1511.94C3792.81 1518.01 3787.89 1522.94 3781.81 1522.94 3775.74 1522.94 3770.81 1518.01 3770.81 1511.94 3770.81 1505.86 3775.74 1500.94 3781.81 1500.94 3787.89 1500.94 3792.81 1505.86 3792.81 1511.94Z" stroke="#FFC000" stroke-width="3.4375" stroke-linejoin="round" stroke-miterlimit="10" fill="#FFC000"/><path d="M3975.81 1507.94C3975.81 1514.01 3970.89 1518.94 3964.81 1518.94 3958.74 1518.94 3953.81 1514.01 3953.81 1507.94 3953.81 1501.86 3958.74 1496.94 3964.81 1496.94 3970.89 1496.94 3975.81 1501.86 3975.81 1507.94Z" stroke="#FFC000" stroke-width="3.4375" stroke-linejoin="round" stroke-miterlimit="10" fill="#FFC000"/><path d="M4030.81 1503.94C4030.81 1510.01 4025.89 1514.94 4019.81 1514.94 4013.74 1514.94 4008.81 1510.01 4008.81 1503.94 4008.81 1497.86 4013.74 1492.94 4019.81 1492.94 4025.89 1492.94 4030.81 1497.86 4030.81 1503.94Z" stroke="#FFC000" stroke-width="3.4375" stroke-linejoin="round" stroke-miterlimit="10" fill="#FFC000"/></g><g clip-path="url(#clip9)"><text fill="#595959" font-family="Calibri,Calibri_MSFontService,sans-serif" font-weight="400" font-size="41" transform="matrix(1 0 0 1 4135.05 1686)">0</text></g><g clip-path="url(#clip10)"><text fill="#595959" font-family="Calibri,Calibri_MSFontService,sans-serif" font-weight="400" font-size="41" transform="matrix(1 0 0 1 4135.05 1472)">50</text></g><g clip-path="url(#clip11)"><text fill="#595959" font-family="Calibri,Calibri_MSFontService,sans-serif" font-weight="400" font-size="41" transform="matrix(1 0 0 1 4135.05 1258)">100</text></g><g clip-path="url(#clip12)"><text fill="#595959" font-family="Calibri,Calibri_MSFontService,sans-serif" font-weight="400" font-size="41" transform="matrix(1 0 0 1 4135.05 1044)">150</text></g><g clip-path="url(#clip13)"><text fill="#595959" font-family="Calibri,Calibri_MSFontService,sans-serif" font-weight="400" font-size="41" transform="matrix(1 0 0 1 4135.05 829)">200</text></g><g clip-path="url(#clip14)"><text fill="#595959" font-family="Calibri,Calibri_MSFontService,sans-serif" font-weight="400" font-size="41" transform="matrix(1 0 0 1 4135.05 615)">250</text></g><g clip-path="url(#clip15)"><text fill="#595959" font-family="Calibri,Calibri_MSFontService,sans-serif" font-weight="400" font-size="41" transform="matrix(1 0 0 1 4086.34 1739)">0</text></g><g clip-path="url(#clip16)"><text fill="#595959" font-family="Calibri,Calibri_MSFontService,sans-serif" font-weight="400" font-size="41" transform="matrix(1 0 0 1 3769.21 1739)">200</text></g><g clip-path="url(#clip17)"><text fill="#595959" font-family="Calibri,Calibri_MSFontService,sans-serif" font-weight="400" font-size="41" transform="matrix(1 0 0 1 3472.98 1739)">400</text></g><g clip-path="url(#clip18)"><text fill="#595959" font-family="Calibri,Calibri_MSFontService,sans-serif" font-weight="400" font-size="41" transform="matrix(1 0 0 1 3176.75 1739)">600</text></g><g clip-path="url(#clip19)"><text fill="#595959" font-family="Calibri,Calibri_MSFontService,sans-serif" font-weight="400" font-size="41" transform="matrix(1 0 0 1 2880.52 1739)">800</text></g><g clip-path="url(#clip20)"><text fill="#595959" font-family="Calibri,Calibri_MSFontService,sans-serif" font-weight="400" font-size="41" transform="matrix(1 0 0 1 2573.84 1739)">1000</text></g><g clip-path="url(#clip21)"><path d="M4271 1051C4271 1057.07 4266.08 1062 4260 1062 4253.92 1062 4249 1057.07 4249 1051 4249 1044.92 4253.92 1040 4260 1040 4266.08 1040 4271 1044.92 4271 1051Z" stroke="#ED7D31" stroke-width="3.4375" stroke-linejoin="round" stroke-miterlimit="10" fill="#ED7D31"/></g><g clip-path="url(#clip22)"><text fill="#595959" font-family="Calibri,Calibri_MSFontService,sans-serif" font-weight="400" font-size="41" transform="matrix(1 0 0 1 4281.45 1063)">20cl</text></g><g clip-path="url(#clip23)"><path d="M4271 1128C4271 1134.07 4266.08 1139 4260 1139 4253.92 1139 4249 1134.07 4249 1128 4249 1121.92 4253.92 1117 4260 1117 4266.08 1117 4271 1121.92 4271 1128Z" stroke="#A5A5A5" stroke-width="3.4375" stroke-linejoin="round" stroke-miterlimit="10" fill="#A5A5A5"/></g><g clip-path="url(#clip24)"><text fill="#595959" font-family="Calibri,Calibri_MSFontService,sans-serif" font-weight="400" font-size="41" transform="matrix(1 0 0 1 4281.45 1140)">16cl</text></g><g clip-path="url(#clip25)"><path d="M4271 1205C4271 1211.07 4266.08 1216 4260 1216 4253.92 1216 4249 1211.07 4249 1205 4249 1198.92 4253.92 1194 4260 1194 4266.08 1194 4271 1198.92 4271 1205Z" stroke="#4472C4" stroke-width="3.4375" stroke-linejoin="round" stroke-miterlimit="10" fill="#4472C4"/></g><g clip-path="url(#clip26)"><text fill="#595959" font-family="Calibri,Calibri_MSFontService,sans-serif" font-weight="400" font-size="41" transform="matrix(1 0 0 1 4281.45 1217)">10cl</text></g><g clip-path="url(#clip27)"><path d="M4271 1283C4271 1289.07 4266.08 1294 4260 1294 4253.92 1294 4249 1289.07 4249 1283 4249 1276.92 4253.92 1272 4260 1272 4266.08 1272 4271 1276.92 4271 1283Z" stroke="#FFC000" stroke-width="3.4375" stroke-linejoin="round" stroke-miterlimit="10" fill="#FFC000"/></g><g clip-path="url(#clip28)"><text fill="#595959" font-family="Calibri,Calibri_MSFontService,sans-serif" font-weight="400" font-size="41" transform="matrix(1 0 0 1 4281.45 1295)">4cl</text></g><rect x="2375.5" y="553.5" width="2022" height="1228" stroke="#D9D9D9" stroke-width="3.4375" stroke-linejoin="round" stroke-miterlimit="10" fill="none"/></g></svg>