<svg width="2031" height="1225" xmlns="http://www.w3.org/2000/svg" xmlns:xlink="http://www.w3.org/1999/xlink" overflow="hidden"><defs><clipPath id="clip0"><rect x="2392" y="554" width="2031" height="1225"/></clipPath><clipPath id="clip1"><rect x="2392" y="555" width="2028" height="1222"/></clipPath><clipPath id="clip2"><rect x="2392" y="555" width="2028" height="1222"/></clipPath><clipPath id="clip3"><rect x="2392" y="555" width="2028" height="1222"/></clipPath><clipPath id="clip4"><rect x="2392" y="555" width="2028" height="1222"/></clipPath><clipPath id="clip5"><rect x="2392" y="555" width="2028" height="1222"/></clipPath><clipPath id="clip6"><rect x="2392" y="555" width="2028" height="1222"/></clipPath><clipPath id="clip7"><rect x="2392" y="555" width="2028" height="1222"/></clipPath><clipPath id="clip8"><rect x="2392" y="555" width="2028" height="1222"/></clipPath><clipPath id="clip9"><rect x="2392" y="555" width="2028" height="1222"/></clipPath><clipPath id="clip10"><rect x="2392" y="555" width="2028" height="1222"/></clipPath><clipPath id="clip11"><rect x="2392" y="555" width="2028" height="1222"/></clipPath><clipPath id="clip12"><rect x="2392" y="555" width="2028" height="1222"/></clipPath><clipPath id="clip13"><rect x="2392" y="555" width="2028" height="1222"/></clipPath><clipPath id="clip14"><rect x="2392" y="555" width="2028" height="1222"/></clipPath><clipPath id="clip15"><rect x="2392" y="555" width="2028" height="1222"/></clipPath><clipPath id="clip16"><rect x="2392" y="555" width="2028" height="1222"/></clipPath><clipPath id="clip17"><rect x="2392" y="555" width="2028" height="1222"/></clipPath><clipPath id="clip18"><rect x="2392" y="555" width="2028" height="1222"/></clipPath><clipPath id="clip19"><rect x="2392" y="555" width="2028" height="1222"/></clipPath><clipPath id="clip20"><rect x="2392" y="555" width="2028" height="1222"/></clipPath><clipPath id="clip21"><rect x="2392" y="555" width="2028" height="1222"/></clipPath><clipPath id="clip22"><rect x="2392" y="555" width="2028" height="1222"/></clipPath><clipPath id="clip23"><rect x="2392" y="555" width="2028" height="1222"/></clipPath><clipPath id="clip24"><rect x="2392" y="555" width="2028" height="1222"/></clipPath><clipPath id="clip25"><rect x="2392" y="555" width="2028" height="1222"/></clipPath><clipPath id="clip26"><rect x="2392" y="555" width="2028" height="1222"/></clipPath><clipPath id="clip27"><rect x="2392" y="555" width="2028" height="1222"/></clipPath><clipPath id="clip28"><rect x="2392" y="555" width="2028" height="1222"/></clipPath><clipPath id="clip29"><rect x="2392" y="555" width="2028" height="1222"/></clipPath></defs><g clip-path="url(#clip0)" transform="translate(-2392 -554)"><rect x="2393" y="555" width="2028" height="1222" fill="#FFFFFF"/><g clip-path="url(#clip1)"><path d="M2484.5 1493.55 4120.5 1493.55M2484.5 1315.54 4120.5 1315.54M2484.5 1138.54 4120.5 1138.54M2484.5 960.532 4120.5 960.532M2484.5 783.526 4120.5 783.526M2484.5 605.5 4120.5 605.5" stroke="#D9D9D9" stroke-width="3.4375" stroke-linejoin="round" stroke-miterlimit="10" fill="none"/></g><g clip-path="url(#clip2)"><path d="M3823.63 605.5 3823.63 1670.5M3525.62 605.5 3525.62 1670.5M3228.61 605.5 3228.61 1670.5M2930.6 605.5 2930.6 1670.5M2633.5 605.5 2633.5 1670.5" stroke="#D9D9D9" stroke-width="3.4375" stroke-linejoin="round" stroke-miterlimit="10" fill="none"/></g><g clip-path="url(#clip3)"><path d="M0 0 0.000360892 1065" stroke="#BFBFBF" stroke-width="3.4375" stroke-linejoin="round" stroke-miterlimit="10" fill="none" fill-rule="evenodd" transform="matrix(1 0 0 -1 4120.5 1670.5)"/></g><g clip-path="url(#clip4)"><path d="M0 0 1636 0.000360892" stroke="#BFBFBF" stroke-width="3.4375" stroke-linejoin="round" stroke-miterlimit="10" fill="none" fill-rule="evenodd" transform="matrix(-1 0 0 1 4120.5 1670.5)"/></g><g clip-path="url(#clip5)"><path d="M2638 768.656C2638 774.731 2633.07 779.655 2627 779.655 2620.92 779.655 2616 774.731 2616 768.656 2616 762.581 2620.92 757.656 2627 757.656 2633.07 757.656 2638 762.581 2638 768.656Z" stroke="#ED7D31" stroke-width="3.4375" stroke-linejoin="round" stroke-miterlimit="10" fill="#ED7D31"/><path d="M3015 765.656C3015 771.731 3010.07 776.655 3004 776.655 2997.92 776.655 2993 771.731 2993 765.656 2993 759.581 2997.92 754.656 3004 754.656 3010.07 754.656 3015 759.581 3015 765.656Z" stroke="#ED7D31" stroke-width="3.4375" stroke-linejoin="round" stroke-miterlimit="10" fill="#ED7D31"/><path d="M3395 765.656C3395 771.731 3390.07 776.655 3384 776.655 3377.92 776.655 3373 771.731 3373 765.656 3373 759.581 3377.92 754.656 3384 754.656 3390.07 754.656 3395 759.581 3395 765.656Z" stroke="#ED7D31" stroke-width="3.4375" stroke-linejoin="round" stroke-miterlimit="10" fill="#ED7D31"/><path d="M2870 772.655C2870 778.73 2865.07 783.655 2859 783.655 2852.92 783.655 2848 778.73 2848 772.655 2848 766.581 2852.92 761.656 2859 761.656 2865.07 761.656 2870 766.581 2870 772.655Z" stroke="#ED7D31" stroke-width="3.4375" stroke-linejoin="round" stroke-miterlimit="10" fill="#ED7D31"/><path d="M3246 761.655C3246 767.73 3241.07 772.655 3235 772.655 3228.92 772.655 3224 767.73 3224 761.655 3224 755.581 3228.92 750.656 3235 750.656 3241.07 750.656 3246 755.581 3246 761.655Z" stroke="#ED7D31" stroke-width="3.4375" stroke-linejoin="round" stroke-miterlimit="10" fill="#ED7D31"/><path d="M3627 786.656C3627 792.73 3622.07 797.655 3616 797.655 3609.92 797.655 3605 792.73 3605 786.656 3605 780.581 3609.92 775.656 3616 775.656 3622.07 775.656 3627 780.581 3627 786.656Z" stroke="#ED7D31" stroke-width="3.4375" stroke-linejoin="round" stroke-miterlimit="10" fill="#ED7D31"/><path d="M3752 807.656C3752 813.73 3747.07 818.655 3741 818.655 3734.92 818.655 3730 813.73 3730 807.656 3730 801.581 3734.92 796.656 3741 796.656 3747.07 796.656 3752 801.581 3752 807.656Z" stroke="#ED7D31" stroke-width="3.4375" stroke-linejoin="round" stroke-miterlimit="10" fill="#ED7D31"/></g><g clip-path="url(#clip6)"><path d="M2623 974.656C2623 980.731 2618.07 985.655 2612 985.655 2605.92 985.655 2601 980.731 2601 974.656 2601 968.581 2605.92 963.656 2612 963.656 2618.07 963.656 2623 968.581 2623 974.656Z" stroke="#A5A5A5" stroke-width="3.4375" stroke-linejoin="round" stroke-miterlimit="10" fill="#A5A5A5"/><path d="M2914 999.656C2914 1005.73 2909.07 1010.66 2903 1010.66 2896.92 1010.66 2892 1005.73 2892 999.656 2892 993.581 2896.92 988.656 2903 988.656 2909.07 988.656 2914 993.581 2914 999.656Z" stroke="#A5A5A5" stroke-width="3.4375" stroke-linejoin="round" stroke-miterlimit="10" fill="#A5A5A5"/><path d="M3195 967.656C3195 973.731 3190.07 978.655 3184 978.655 3177.92 978.655 3173 973.731 3173 967.656 3173 961.581 3177.92 956.656 3184 956.656 3190.07 956.656 3195 961.581 3195 967.656Z" stroke="#A5A5A5" stroke-width="3.4375" stroke-linejoin="round" stroke-miterlimit="10" fill="#A5A5A5"/><path d="M3490 960.655C3490 966.73 3485.07 971.655 3479 971.655 3472.92 971.655 3468 966.73 3468 960.655 3468 954.581 3472.92 949.656 3479 949.656 3485.07 949.656 3490 954.581 3490 960.655Z" stroke="#A5A5A5" stroke-width="3.4375" stroke-linejoin="round" stroke-miterlimit="10" fill="#A5A5A5"/><path d="M3799 967.656C3799 973.731 3794.07 978.655 3788 978.655 3781.92 978.655 3777 973.731 3777 967.656 3777 961.581 3781.92 956.656 3788 956.656 3794.07 956.656 3799 961.581 3799 967.656Z" stroke="#A5A5A5" stroke-width="3.4375" stroke-linejoin="round" stroke-miterlimit="10" fill="#A5A5A5"/></g><g clip-path="url(#clip7)"><path d="M2623 1230.66C2623 1236.73 2618.07 1241.66 2612 1241.66 2605.92 1241.66 2601 1236.73 2601 1230.66 2601 1224.58 2605.92 1219.66 2612 1219.66 2618.07 1219.66 2623 1224.58 2623 1230.66Z" stroke="#4472C4" stroke-width="3.4375" stroke-linejoin="round" stroke-miterlimit="10" fill="#4472C4"/><path d="M2807 1234.66C2807 1240.73 2802.07 1245.66 2796 1245.66 2789.92 1245.66 2785 1240.73 2785 1234.66 2785 1228.58 2789.92 1223.66 2796 1223.66 2802.07 1223.66 2807 1228.58 2807 1234.66Z" stroke="#4472C4" stroke-width="3.4375" stroke-linejoin="round" stroke-miterlimit="10" fill="#4472C4"/><path d="M2990 1237.66C2990 1243.73 2985.07 1248.66 2979 1248.66 2972.92 1248.66 2968 1243.73 2968 1237.66 2968 1231.58 2972.92 1226.66 2979 1226.66 2985.07 1226.66 2990 1231.58 2990 1237.66Z" stroke="#4472C4" stroke-width="3.4375" stroke-linejoin="round" stroke-miterlimit="10" fill="#4472C4"/><path d="M3171 1223.66C3171 1229.73 3166.07 1234.66 3160 1234.66 3153.92 1234.66 3149 1229.73 3149 1223.66 3149 1217.58 3153.92 1212.66 3160 1212.66 3166.07 1212.66 3171 1217.58 3171 1223.66Z" stroke="#4472C4" stroke-width="3.4375" stroke-linejoin="round" stroke-miterlimit="10" fill="#4472C4"/><path d="M3360 1234.66C3360 1240.73 3355.07 1245.66 3349 1245.66 3342.92 1245.66 3338 1240.73 3338 1234.66 3338 1228.58 3342.92 1223.66 3349 1223.66 3355.07 1223.66 3360 1228.58 3360 1234.66Z" stroke="#4472C4" stroke-width="3.4375" stroke-linejoin="round" stroke-miterlimit="10" fill="#4472C4"/><path d="M3543 1244.66C3543 1250.73 3538.07 1255.66 3532 1255.66 3525.92 1255.66 3521 1250.73 3521 1244.66 3521 1238.58 3525.92 1233.66 3532 1233.66 3538.07 1233.66 3543 1238.58 3543 1244.66Z" stroke="#4472C4" stroke-width="3.4375" stroke-linejoin="round" stroke-miterlimit="10" fill="#4472C4"/><path d="M3722 1244.66C3722 1250.73 3717.07 1255.66 3711 1255.66 3704.92 1255.66 3700 1250.73 3700 1244.66 3700 1238.58 3704.92 1233.66 3711 1233.66 3717.07 1233.66 3722 1238.58 3722 1244.66Z" stroke="#4472C4" stroke-width="3.4375" stroke-linejoin="round" stroke-miterlimit="10" fill="#4472C4"/><path d="M3900 1255.66C3900 1261.73 3895.07 1266.66 3889 1266.66 3882.92 1266.66 3878 1261.73 3878 1255.66 3878 1249.58 3882.92 1244.66 3889 1244.66 3895.07 1244.66 3900 1249.58 3900 1255.66Z" stroke="#4472C4" stroke-width="3.4375" stroke-linejoin="round" stroke-miterlimit="10" fill="#4472C4"/></g><g clip-path="url(#clip8)"><path d="M2609 1503.66C2609 1509.73 2604.07 1514.66 2598 1514.66 2591.92 1514.66 2587 1509.73 2587 1503.66 2587 1497.58 2591.92 1492.66 2598 1492.66 2604.07 1492.66 2609 1497.58 2609 1503.66Z" stroke="#FFC000" stroke-width="3.4375" stroke-linejoin="round" stroke-miterlimit="10" fill="#FFC000"/><path d="M2679 1514.66C2679 1520.73 2674.07 1525.66 2668 1525.66 2661.92 1525.66 2657 1520.73 2657 1514.66 2657 1508.58 2661.92 1503.66 2668 1503.66 2674.07 1503.66 2679 1508.58 2679 1514.66Z" stroke="#FFC000" stroke-width="3.4375" stroke-linejoin="round" stroke-miterlimit="10" fill="#FFC000"/><path d="M2745 1514.66C2745 1520.73 2740.07 1525.66 2734 1525.66 2727.92 1525.66 2723 1520.73 2723 1514.66 2723 1508.58 2727.92 1503.66 2734 1503.66 2740.07 1503.66 2745 1508.58 2745 1514.66Z" stroke="#FFC000" stroke-width="3.4375" stroke-linejoin="round" stroke-miterlimit="10" fill="#FFC000"/><path d="M2810 1525.66C2810 1531.73 2805.07 1536.66 2799 1536.66 2792.92 1536.66 2788 1531.73 2788 1525.66 2788 1519.58 2792.92 1514.66 2799 1514.66 2805.07 1514.66 2810 1519.58 2810 1525.66Z" stroke="#FFC000" stroke-width="3.4375" stroke-linejoin="round" stroke-miterlimit="10" fill="#FFC000"/><path d="M2876 1500.66C2876 1506.73 2871.07 1511.66 2865 1511.66 2858.92 1511.66 2854 1506.73 2854 1500.66 2854 1494.58 2858.92 1489.66 2865 1489.66 2871.07 1489.66 2876 1494.58 2876 1500.66Z" stroke="#FFC000" stroke-width="3.4375" stroke-linejoin="round" stroke-miterlimit="10" fill="#FFC000"/><path d="M2947 1503.66C2947 1509.73 2942.07 1514.66 2936 1514.66 2929.92 1514.66 2925 1509.73 2925 1503.66 2925 1497.58 2929.92 1492.66 2936 1492.66 2942.07 1492.66 2947 1497.58 2947 1503.66Z" stroke="#FFC000" stroke-width="3.4375" stroke-linejoin="round" stroke-miterlimit="10" fill="#FFC000"/><path d="M3017 1493.66C3017 1499.73 3012.07 1504.66 3006 1504.66 2999.92 1504.66 2995 1499.73 2995 1493.66 2995 1487.58 2999.92 1482.66 3006 1482.66 3012.07 1482.66 3017 1487.58 3017 1493.66Z" stroke="#FFC000" stroke-width="3.4375" stroke-linejoin="round" stroke-miterlimit="10" fill="#FFC000"/><path d="M3091 1493.66C3091 1499.73 3086.07 1504.66 3080 1504.66 3073.92 1504.66 3069 1499.73 3069 1493.66 3069 1487.58 3073.92 1482.66 3080 1482.66 3086.07 1482.66 3091 1487.58 3091 1493.66Z" stroke="#FFC000" stroke-width="3.4375" stroke-linejoin="round" stroke-miterlimit="10" fill="#FFC000"/><path d="M3166 1500.66C3166 1506.73 3161.07 1511.66 3155 1511.66 3148.92 1511.66 3144 1506.73 3144 1500.66 3144 1494.58 3148.92 1489.66 3155 1489.66 3161.07 1489.66 3166 1494.58 3166 1500.66Z" stroke="#FFC000" stroke-width="3.4375" stroke-linejoin="round" stroke-miterlimit="10" fill="#FFC000"/><path d="M3237 1496.66C3237 1502.73 3232.07 1507.66 3226 1507.66 3219.92 1507.66 3215 1502.73 3215 1496.66 3215 1490.58 3219.92 1485.66 3226 1485.66 3232.07 1485.66 3237 1490.58 3237 1496.66Z" stroke="#FFC000" stroke-width="3.4375" stroke-linejoin="round" stroke-miterlimit="10" fill="#FFC000"/><path d="M3311 1500.66C3311 1506.73 3306.07 1511.66 3300 1511.66 3293.92 1511.66 3289 1506.73 3289 1500.66 3289 1494.58 3293.92 1489.66 3300 1489.66 3306.07 1489.66 3311 1494.58 3311 1500.66Z" stroke="#FFC000" stroke-width="3.4375" stroke-linejoin="round" stroke-miterlimit="10" fill="#FFC000"/><path d="M3384 1496.66C3384 1502.73 3379.07 1507.66 3373 1507.66 3366.92 1507.66 3362 1502.73 3362 1496.66 3362 1490.58 3366.92 1485.66 3373 1485.66 3379.07 1485.66 3384 1490.58 3384 1496.66Z" stroke="#FFC000" stroke-width="3.4375" stroke-linejoin="round" stroke-miterlimit="10" fill="#FFC000"/><path d="M3459 1496.66C3459 1502.73 3454.07 1507.66 3448 1507.66 3441.92 1507.66 3437 1502.73 3437 1496.66 3437 1490.58 3441.92 1485.66 3448 1485.66 3454.07 1485.66 3459 1490.58 3459 1496.66Z" stroke="#FFC000" stroke-width="3.4375" stroke-linejoin="round" stroke-miterlimit="10" fill="#FFC000"/><path d="M3534 1500.66C3534 1506.73 3529.07 1511.66 3523 1511.66 3516.92 1511.66 3512 1506.73 3512 1500.66 3512 1494.58 3516.92 1489.66 3523 1489.66 3529.07 1489.66 3534 1494.58 3534 1500.66Z" stroke="#FFC000" stroke-width="3.4375" stroke-linejoin="round" stroke-miterlimit="10" fill="#FFC000"/><path d="M3607 1500.66C3607 1506.73 3602.07 1511.66 3596 1511.66 3589.92 1511.66 3585 1506.73 3585 1500.66 3585 1494.58 3589.92 1489.66 3596 1489.66 3602.07 1489.66 3607 1494.58 3607 1500.66Z" stroke="#FFC000" stroke-width="3.4375" stroke-linejoin="round" stroke-miterlimit="10" fill="#FFC000"/><path d="M3680 1511.66C3680 1517.73 3675.07 1522.66 3669 1522.66 3662.92 1522.66 3658 1517.73 3658 1511.66 3658 1505.58 3662.92 1500.66 3669 1500.66 3675.07 1500.66 3680 1505.58 3680 1511.66Z" stroke="#FFC000" stroke-width="3.4375" stroke-linejoin="round" stroke-miterlimit="10" fill="#FFC000"/><path d="M3749 1511.66C3749 1517.73 3744.07 1522.66 3738 1522.66 3731.92 1522.66 3727 1517.73 3727 1511.66 3727 1505.58 3731.92 1500.66 3738 1500.66 3744.07 1500.66 3749 1505.58 3749 1511.66Z" stroke="#FFC000" stroke-width="3.4375" stroke-linejoin="round" stroke-miterlimit="10" fill="#FFC000"/><path d="M3819 1507.66C3819 1513.73 3814.07 1518.66 3808 1518.66 3801.92 1518.66 3797 1513.73 3797 1507.66 3797 1501.58 3801.92 1496.66 3808 1496.66 3814.07 1496.66 3819 1501.58 3819 1507.66Z" stroke="#FFC000" stroke-width="3.4375" stroke-linejoin="round" stroke-miterlimit="10" fill="#FFC000"/><path d="M3888 1503.66C3888 1509.73 3883.07 1514.66 3877 1514.66 3870.92 1514.66 3866 1509.73 3866 1503.66 3866 1497.58 3870.92 1492.66 3877 1492.66 3883.07 1492.66 3888 1497.58 3888 1503.66Z" stroke="#FFC000" stroke-width="3.4375" stroke-linejoin="round" stroke-miterlimit="10" fill="#FFC000"/><path d="M3960 1503.66C3960 1509.73 3955.07 1514.66 3949 1514.66 3942.92 1514.66 3938 1509.73 3938 1503.66 3938 1497.58 3942.92 1492.66 3949 1492.66 3955.07 1492.66 3960 1497.58 3960 1503.66Z" stroke="#FFC000" stroke-width="3.4375" stroke-linejoin="round" stroke-miterlimit="10" fill="#FFC000"/><path d="M4031 1543.66C4031 1549.73 4026.07 1554.66 4020 1554.66 4013.92 1554.66 4009 1549.73 4009 1543.66 4009 1537.58 4013.92 1532.66 4020 1532.66 4026.07 1532.66 4031 1537.58 4031 1543.66Z" stroke="#FFC000" stroke-width="3.4375" stroke-linejoin="round" stroke-miterlimit="10" fill="#FFC000"/></g><g clip-path="url(#clip9)"><text fill="#595959" font-family="Calibri,Calibri_MSFontService,sans-serif" font-weight="400" font-size="41" transform="matrix(1 0 0 1 4159.12 1682)">0</text></g><g clip-path="url(#clip10)"><text fill="#595959" font-family="Calibri,Calibri_MSFontService,sans-serif" font-weight="400" font-size="41" transform="matrix(1 0 0 1 4159.12 1505)">50</text></g><g clip-path="url(#clip11)"><text fill="#595959" font-family="Calibri,Calibri_MSFontService,sans-serif" font-weight="400" font-size="41" transform="matrix(1 0 0 1 4159.12 1327)">100</text></g><g clip-path="url(#clip12)"><text fill="#595959" font-family="Calibri,Calibri_MSFontService,sans-serif" font-weight="400" font-size="41" transform="matrix(1 0 0 1 4159.12 1150)">150</text></g><g clip-path="url(#clip13)"><text fill="#595959" font-family="Calibri,Calibri_MSFontService,sans-serif" font-weight="400" font-size="41" transform="matrix(1 0 0 1 4159.12 972)">200</text></g><g clip-path="url(#clip14)"><text fill="#595959" font-family="Calibri,Calibri_MSFontService,sans-serif" font-weight="400" font-size="41" transform="matrix(1 0 0 1 4159.12 795)">250</text></g><g clip-path="url(#clip15)"><text fill="#595959" font-family="Calibri,Calibri_MSFontService,sans-serif" font-weight="400" font-size="41" transform="matrix(1 0 0 1 4159.12 617)">300</text></g><g clip-path="url(#clip16)"><text fill="#595959" font-family="Calibri,Calibri_MSFontService,sans-serif" font-weight="400" font-size="41" transform="matrix(1 0 0 1 4110.4 1736)">0</text></g><g clip-path="url(#clip17)"><text fill="#595959" font-family="Calibri,Calibri_MSFontService,sans-serif" font-weight="400" font-size="41" transform="matrix(1 0 0 1 3792.02 1736)">200</text></g><g clip-path="url(#clip18)"><text fill="#595959" font-family="Calibri,Calibri_MSFontService,sans-serif" font-weight="400" font-size="41" transform="matrix(1 0 0 1 3494.54 1736)">400</text></g><g clip-path="url(#clip19)"><text fill="#595959" font-family="Calibri,Calibri_MSFontService,sans-serif" font-weight="400" font-size="41" transform="matrix(1 0 0 1 3197.06 1736)">600</text></g><g clip-path="url(#clip20)"><text fill="#595959" font-family="Calibri,Calibri_MSFontService,sans-serif" font-weight="400" font-size="41" transform="matrix(1 0 0 1 2899.58 1736)">800</text></g><g clip-path="url(#clip21)"><text fill="#595959" font-family="Calibri,Calibri_MSFontService,sans-serif" font-weight="400" font-size="41" transform="matrix(1 0 0 1 2591.66 1736)">1000</text></g><g clip-path="url(#clip22)"><path d="M4295 1050C4295 1056.07 4290.08 1061 4284 1061 4277.92 1061 4273 1056.07 4273 1050 4273 1043.92 4277.92 1039 4284 1039 4290.08 1039 4295 1043.92 4295 1050Z" stroke="#ED7D31" stroke-width="3.4375" stroke-linejoin="round" stroke-miterlimit="10" fill="#ED7D31"/></g><g clip-path="url(#clip23)"><text fill="#595959" font-family="Calibri,Calibri_MSFontService,sans-serif" font-weight="400" font-size="41" transform="matrix(1 0 0 1 4305.51 1062)">20cl</text></g><g clip-path="url(#clip24)"><path d="M4295 1127C4295 1133.07 4290.08 1138 4284 1138 4277.92 1138 4273 1133.07 4273 1127 4273 1120.92 4277.92 1116 4284 1116 4290.08 1116 4295 1120.92 4295 1127Z" stroke="#A5A5A5" stroke-width="3.4375" stroke-linejoin="round" stroke-miterlimit="10" fill="#A5A5A5"/></g><g clip-path="url(#clip25)"><text fill="#595959" font-family="Calibri,Calibri_MSFontService,sans-serif" font-weight="400" font-size="41" transform="matrix(1 0 0 1 4305.51 1139)">16cl</text></g><g clip-path="url(#clip26)"><path d="M4295 1204C4295 1210.07 4290.08 1215 4284 1215 4277.92 1215 4273 1210.07 4273 1204 4273 1197.92 4277.92 1193 4284 1193 4290.08 1193 4295 1197.92 4295 1204Z" stroke="#4472C4" stroke-width="3.4375" stroke-linejoin="round" stroke-miterlimit="10" fill="#4472C4"/></g><g clip-path="url(#clip27)"><text fill="#595959" font-family="Calibri,Calibri_MSFontService,sans-serif" font-weight="400" font-size="41" transform="matrix(1 0 0 1 4305.51 1216)">10cl</text></g><g clip-path="url(#clip28)"><path d="M4295 1282C4295 1288.07 4290.08 1293 4284 1293 4277.92 1293 4273 1288.07 4273 1282 4273 1275.92 4277.92 1271 4284 1271 4290.08 1271 4295 1275.92 4295 1282Z" stroke="#FFC000" stroke-width="3.4375" stroke-linejoin="round" stroke-miterlimit="10" fill="#FFC000"/></g><g clip-path="url(#clip29)"><text fill="#595959" font-family="Calibri,Calibri_MSFontService,sans-serif" font-weight="400" font-size="41" transform="matrix(1 0 0 1 4305.51 1294)">4cl</text></g><rect x="2393.5" y="555.5" width="2028" height="1222" stroke="#D9D9D9" stroke-width="3.4375" stroke-linejoin="round" stroke-miterlimit="10" fill="none"/></g></svg>